<svg width="64" height="64" viewBox="0 0 64 64" fill="none" xmlns="http://www.w3.org/2000/svg">
  <defs>
    <linearGradient id="g" x1="16" y1="14" x2="50" y2="50" gradientUnits="userSpaceOnUse">
      <stop offset="0" stop-color="#BA60A4"/>
      <stop offset="0.5" stop-color="#9878B6"/>
      <stop offset="1" stop-color="#0F9BD7"/>
    </linearGradient>
  </defs>
  <circle cx="32" cy="32" r="31" fill="#131233"/>
  <g stroke="url(#g)" stroke-width="1.3" opacity="0.95">
    <path d="M20 26 L32 18 L44 25 M20 26 L26 38 L32 46 M26 38 L40 40 M32 18 L26 38 M44 25 L40 40 L32 46 M20 26 L44 25 M24 31 L37 30 L40 40 M37 30 L32 18" fill="none"/>
  </g>
  <circle cx="32" cy="18" r="3" fill="url(#g)"/>
  <circle cx="20" cy="26" r="2.5" fill="url(#g)"/>
  <circle cx="44" cy="25" r="2.8" fill="url(#g)"/>
  <circle cx="26" cy="38" r="2.8" fill="url(#g)"/>
  <circle cx="40" cy="40" r="3" fill="url(#g)"/>
  <circle cx="32" cy="46" r="2.5" fill="url(#g)"/>
  <circle cx="24" cy="31" r="2" fill="url(#g)"/>
  <circle cx="37" cy="30" r="2.2" fill="url(#g)"/>
</svg>
